<?xml version="1.0" encoding="utf-8"?>
<!-- Generator: Adobe Illustrator 23.1.0, SVG Export Plug-In . SVG Version: 6.00 Build 0)  -->
<svg version="1.1" id="layer" xmlns="http://www.w3.org/2000/svg" xmlns:xlink="http://www.w3.org/1999/xlink" x="0px" y="0px"
	 viewBox="0 0 652 652" style="enable-background:new 0 0 652 652;" xml:space="preserve">
<style type="text/css">
	.st0{fill:#FCF7F9;}
</style>
<g>
	<g>
		<g>
			<g>
				<path class="st0" d="M554.5,237.8h-18.6l-5.7,33.6h10.3c8.7-9.9,16.3-33.6,16.3-33.6L554.5,237.8L554.5,237.8z"/>
			</g>
			<g>
				<path class="st0" d="M152.4,237.9H103v168h52.8v-24.4h-23.9c0-3.2,0-51.1,0-54.3h20.7v-24.3h-20.7v-40.4c3,0,22.2,0,22.2,0V238
					h-1.7L152.4,237.9L152.4,237.9z"/>
			</g>
			<g>
				<path class="st0" d="M526.5,237.8h-20.7c0,0-6.4,46.4-8.6,62.2c-2.3-15.8-9-62.2-9-62.2h-28.8L479.7,353v52.8h28.8v-53.1
					l19.8-112.8l0.4-2.1L526.5,237.8L526.5,237.8z"/>
			</g>
			<g>
				<path class="st0" d="M88,237.9H61.6c0,0,0,60.7,0,64.1c-2.4,0-9.6,0-12.1,0v-64.1H21.1l0.1,168h28.4c0,0,0-76.4,0-79.8h12v79.8
					h28.2v-168L88,237.9L88,237.9z"/>
			</g>
			<g>
				<g>
					<path class="st0" d="M231.5,375.8V336c0-9.5-4.1-16.8-11.6-21.4c7.9-4.4,12.2-12.4,12.2-23.7V266c0-17.1-9.7-28.2-24.6-28.2
						h-42.3v168h27.6c0,0,0-75.7,0-79.1h4.6c1.6,0,6.6,0,6.6,7.6v51.1c0,6.4,0.4,13.7,3.2,19.4l0.5,1h35
						C242.6,405.9,231.5,400.6,231.5,375.8 M205.5,297.9c0,6.4-5.6,7.1-8,7.1c0,0-3.1,0-3.4,0v-42h3.1c5.5,0,8.2,2.3,8.2,6.7
						L205.5,297.9L205.5,297.9z"/>
				</g>
			</g>
			<g>
				<path class="st0" d="M555.1,266.4v16.3c0,13.5,3.2,20.7,9.1,29.4c4.1,5.9,8.9,11.1,13.6,16.1l9.5,10.8c3.6,4.7,5.9,8.3,5.9,14.8
					v25.1c0,2.8-2.4,4.9-5.7,4.9c-3.4,0-5.8-2.2-5.8-5.5V346h-27.8v33.6c0,18,12.7,29.2,33,29.2c16.4,0,34-9,34-28.9v-27.1
					c0-9.9-1.2-16.8-8-26.6c-4.1-6-10.5-13.1-16.2-19.5l-6.9-7.8c-4.9-5.9-7.3-10.4-7.3-20.1v-12.4c0-4,2.9-5.5,5.4-5.5
					c3.2,0,5.1,2.1,5.1,5.5V291h26.8v-25.2c0-20-10.8-30.1-32.2-30.1C566.8,235.6,555.1,246.6,555.1,266.4"/>
			</g>
			<g>
				<path class="st0" d="M450.5,237.8h-48.6v168h52.9v-24.4h-23.9c0-3.2,0-51.1,0-54.3h20.7v-24.3h-20.7v-40.4h21.5v-24.5h-1.9
					V237.8z"/>
			</g>
			<g>
				<path class="st0" d="M386.9,237.9h-26.5c0,0,0,60.7,0,64.1c-2.4,0-9.6,0-12,0c0-3.4,0-64.1,0-64.1H320l0.1,168h28.4
					c0,0,0-76.4,0-79.8h12v79.8h28.2v-168L386.9,237.9L386.9,237.9z"/>
			</g>
			<g>
				<path class="st0" d="M243.2,266.5v16.3c0,13.5,3.2,20.7,9.1,29.3c4,5.9,8.9,11.1,13.6,16.1l9.5,10.8c3.6,4.7,5.9,8.3,5.9,14.8
					v25.1c0,2.8-2.4,4.9-5.8,4.9s-5.8-2.2-5.8-5.5V346h-27.8v33.6c0,18,12.7,29.2,33.1,29.2c16.4,0,34-9.1,34-28.9v-27.1
					c0-9.9-1.2-16.8-7.9-26.6c-4.1-6-10.5-13.1-16.1-19.4l-6.9-7.8c-4.9-5.9-7.3-10.4-7.3-20.2v-12.4c0-4,2.9-5.5,5.4-5.5
					c3.2,0,5.1,2.1,5.1,5.5V291h26.8v-25.2c0-20-10.8-30.1-32.1-30.1C254.9,235.7,243.2,246.6,243.2,266.5"/>
			</g>
		</g>
	</g>
</g>
</svg>
